<svg width="18" height="18" viewBox="0 0 18 18" fill="none" xmlns="http://www.w3.org/2000/svg">
<path d="M1.5 3.99999H3.16667M3.16667 3.99999H16.5M3.16667 3.99999L3.16667 15.6667C3.16667 16.1087 3.34226 16.5326 3.65482 16.8452C3.96738 17.1577 4.39131 17.3333 4.83333 17.3333H13.1667C13.6087 17.3333 14.0326 17.1577 14.3452 16.8452C14.6577 16.5326 14.8333 16.1087 14.8333 15.6667V3.99999L3.16667 3.99999ZM5.66667 3.99999V2.33332C5.66667 1.8913 5.84226 1.46737 6.15482 1.15481C6.46738 0.842251 6.89131 0.666656 7.33333 0.666656H10.6667C11.1087 0.666656 11.5326 0.842251 11.8452 1.15481C12.1577 1.46737 12.3333 1.8913 12.3333 2.33332V3.99999M7.33333 8.16666V13.1667M10.6667 8.16666V13.1667" stroke="#B6B6B6" stroke-width="1.2" stroke-linecap="round" stroke-linejoin="round"/>
</svg>
